<svg width="131" height="28" viewBox="0 0 131 28" fill="none" xmlns="http://www.w3.org/2000/svg">
<path d="M32.9 27.2717C32.4198 27.0469 31.8885 27.0776 31.3776 26.9754C30.3455 26.7608 29.3238 26.5258 28.3326 26.1273C27.9852 25.9843 27.9035 25.8208 27.9954 25.4529C29.3442 19.8535 30.6725 14.2438 32.0009 8.64439C32.5935 6.16143 33.1861 3.68868 33.7788 1.20572C33.8299 1.01158 33.8197 0.827655 34.116 0.786783C35.7917 0.541552 37.4675 0.265667 39.2147 0C38.4995 2.97343 37.8047 5.88554 37.0894 8.87941C37.3653 8.77723 37.5901 8.69548 37.8251 8.61374C40.9722 7.57151 45.1922 8.61374 46.1425 13.4468C47.2563 19.0769 44.0989 25.034 38.2645 26.8017C37.6105 26.9958 36.9259 27.1185 36.2617 27.2819C35.148 27.2717 34.024 27.2717 32.9 27.2717ZM41.2788 15.94C41.2379 15.5824 41.2277 15.1328 41.1459 14.7036C40.9518 13.7329 40.6146 12.844 39.4804 12.6192C38.3769 12.4046 37.3142 12.5681 36.3435 13.1607C36.1391 13.2833 35.9961 13.4468 35.9348 13.7125C35.2399 16.6348 34.5349 19.5572 33.8197 22.4795C33.7481 22.7758 33.7992 22.9189 34.116 22.9598C35.6793 23.1335 37.1814 22.9904 38.4688 21.9584C40.3591 20.4359 41.1664 18.4025 41.2788 15.94Z" fill="#4181FF"/>
<path d="M91.6576 27.269C91.3919 27.0646 91.0548 27.1055 90.7482 27.0238C87.9792 26.3085 86.3852 24.4386 85.9764 21.7104C85.3225 17.3678 86.4669 13.5156 89.7877 10.5218C92.4751 8.08989 95.6528 7.50746 99.0554 8.68253C101.579 9.55106 102.754 11.6151 103.051 14.1287C103.47 17.6335 102.652 20.8623 100.435 23.6518C98.8613 25.6341 96.8279 26.8705 94.2632 27.177C94.2019 27.1872 94.1508 27.2383 94.0997 27.2588C93.2925 27.269 92.4751 27.269 91.6576 27.269ZM90.9015 18.9822C90.9117 20.096 90.973 20.9236 91.3204 21.7002C91.6065 22.3439 92.097 22.7322 92.7816 22.8446C93.834 23.0183 94.8048 22.8242 95.6426 22.0987C96.7053 21.1689 97.3388 19.9938 97.7066 18.6553C98.1256 17.143 98.2482 15.6103 97.7884 14.0776C97.5125 13.158 96.9199 12.6164 95.9287 12.5143C94.8047 12.3916 93.8545 12.7391 93.0575 13.5361C91.4941 15.1301 90.9832 17.1123 90.9015 18.9822Z" fill="#4181FF"/>
<path d="M76.7335 27.2746C76.427 27.0805 76.0592 27.1111 75.722 27.0192C72.7281 26.2528 70.8786 24.3727 70.4291 21.3073C69.8875 17.6186 70.7152 14.2569 73.2594 11.447C75.0987 9.41362 77.4692 8.38161 80.1872 8.17725C82.1082 8.0342 83.9883 8.26921 85.7764 9.04577C86.0523 9.16839 86.1341 9.25013 85.991 9.55667C85.4903 10.6398 85.0101 11.7229 84.5503 12.8264C84.4174 13.1534 84.2744 13.2147 83.9474 13.0819C82.5476 12.4892 81.0762 12.2951 79.6048 12.6936C77.2547 13.3271 76.1307 15.0539 75.7117 17.3223C75.4972 18.4463 75.4665 19.5907 75.7935 20.7147C76.2022 22.1145 77.0707 22.7991 78.5217 22.9013C79.8296 22.9933 81.1068 22.8094 82.333 22.3496C82.6599 22.2269 82.7315 22.2882 82.7519 22.6254C82.8337 23.729 82.9358 24.8325 83.0585 25.9258C83.0891 26.2426 82.9869 26.3754 82.6906 26.4674C81.7506 26.7739 80.8105 27.0805 79.8296 27.1826C79.758 27.1929 79.6967 27.2031 79.6763 27.2848C78.7056 27.2746 77.7247 27.2746 76.7335 27.2746Z" fill="#4181FF"/>
<path d="M125.259 26.7806C124.524 26.7806 123.798 26.7704 123.062 26.7908C122.756 26.801 122.705 26.7193 122.776 26.4128C123.532 23.2758 124.278 20.1287 125.004 16.9816C125.218 16.0415 125.484 15.0913 125.3 14.1103C125.126 13.1805 124.585 12.6594 123.655 12.5674C122.889 12.4959 122.122 12.5674 121.366 12.6696C121.08 12.7105 121.029 12.8944 120.978 13.1192C120.201 16.4094 119.415 19.6996 118.628 22.9897C118.362 24.1137 118.076 25.2377 117.831 26.3617C117.759 26.658 117.667 26.7806 117.33 26.7806C115.879 26.7602 114.438 26.7704 112.987 26.7806C112.681 26.7806 112.579 26.7499 112.671 26.3923C114.019 20.8644 115.348 15.3263 116.676 9.78814C116.737 9.53269 116.85 9.43051 117.085 9.34876C119.731 8.4598 122.439 8.04087 125.229 8.27588C127.385 8.4598 129.193 9.26702 130.092 11.4128C130.757 12.9864 130.705 14.6212 130.338 16.2357C129.571 19.6485 128.723 23.051 127.926 26.4536C127.855 26.7397 127.712 26.7908 127.456 26.7806C126.72 26.7704 125.995 26.7806 125.259 26.7806Z" fill="#4181FF"/>
<path d="M66.5728 12.8506C65.7553 12.8506 64.9379 12.8608 64.1204 12.8404C63.8548 12.8302 63.7322 12.9119 63.6709 13.1776C63.1497 15.4664 62.6082 17.745 62.0769 20.0236C62.0564 20.0849 62.0462 20.1565 62.036 20.228C61.7908 22.0366 62.4856 22.854 64.3146 22.9051C65.3364 22.9358 66.3173 22.7518 67.2676 22.4453C67.5639 22.3431 67.6354 22.3942 67.6559 22.7007C67.7478 23.7838 67.85 24.867 67.9624 25.9501C67.9828 26.1646 67.9522 26.2872 67.7172 26.369C65.3057 27.2171 62.8432 27.493 60.3398 26.9105C57.9692 26.3588 56.7431 24.4685 56.8453 21.8527C56.927 19.758 57.489 17.7655 57.959 15.7423C58.8173 12.0536 59.7063 8.37517 60.5646 4.68648C60.6668 4.26755 60.8098 4.07341 61.2594 4.0121C62.6899 3.82818 64.1204 3.59316 65.5407 3.34793C66.021 3.26619 66.0312 3.41946 65.929 3.81796C65.551 5.29956 65.2138 6.79138 64.8255 8.27299C64.7437 8.59996 64.8255 8.64083 65.1218 8.64083C66.7362 8.63062 68.3609 8.65105 69.9753 8.63062C70.3841 8.6204 70.4658 8.73279 70.3636 9.12108C70.0673 10.2348 69.8016 11.3588 69.536 12.4828C69.4747 12.7587 69.3623 12.8711 69.0557 12.8609C68.2485 12.8404 67.4106 12.8506 66.5728 12.8506Z" fill="#4181FF"/>
<path d="M106.199 26.7787C105.504 26.7787 104.799 26.7481 104.105 26.7889C103.675 26.8094 103.635 26.6766 103.716 26.2985C104.483 23.1105 105.239 19.9225 106.005 16.7243C106.608 14.1902 107.211 11.6664 107.793 9.13232C107.875 8.76447 108.018 8.6112 108.427 8.62142C109.806 8.65207 111.186 8.64186 112.565 8.62142C112.953 8.6112 113.066 8.69295 112.974 9.10166C111.584 14.8544 110.205 20.5969 108.836 26.3598C108.754 26.697 108.621 26.7992 108.294 26.7889C107.599 26.7583 106.894 26.7787 106.199 26.7787Z" fill="#4181FF"/>
<path d="M49.3711 26.777C48.6763 26.777 47.9712 26.7463 47.2764 26.7872C46.8473 26.8076 46.8166 26.6748 46.9086 26.307C47.6443 23.2518 48.3697 20.1966 49.0952 17.1415C49.7287 14.4848 50.3622 11.8179 50.9855 9.16124C51.0775 8.76273 51.2205 8.61968 51.6497 8.6299C53.0291 8.66056 54.4086 8.65034 55.788 8.64012C56.1456 8.64012 56.258 8.71164 56.166 9.09993C54.7764 14.8629 53.397 20.6258 52.0278 26.3887C51.9562 26.685 51.8541 26.8076 51.5271 26.7974C50.7914 26.7566 50.0761 26.777 49.3711 26.777Z" fill="#4181FF"/>
<path d="M57.9384 2.93461C57.9384 5.203 55.6496 6.91962 53.4834 6.28611C52.1652 5.90804 51.5113 4.95777 51.6032 3.56813C51.7565 1.3917 54.0862 -0.171645 56.1605 0.50274C57.356 0.880804 57.9486 1.68802 57.9384 2.93461Z" fill="#4181FF"/>
<path d="M114.753 2.89821C114.764 5.17682 112.526 6.90365 110.329 6.30079C108.847 5.90229 108.163 4.72722 108.49 3.15366C108.919 1.0692 111.238 -0.208049 113.18 0.578733C114.263 1.01811 114.753 1.74358 114.753 2.89821Z" fill="#4181FF"/>
<path fill-rule="evenodd" clip-rule="evenodd" d="M0.167162 11.4741C0.112954 11.7363 0.0588202 11.9981 0 12.2576V15.2208C0.179784 15.5471 0.229392 15.9038 0.278898 16.2597C0.30536 16.4499 0.331794 16.64 0.378064 16.8251C1.72683 22.3734 6.3147 26.4708 11.9959 27.1759C12.0133 27.1778 12.0315 27.1786 12.0499 27.1795C12.1286 27.1831 12.2119 27.1869 12.2616 27.278H15.0204C15.2058 27.1371 15.4288 27.1254 15.6466 27.1139C15.7289 27.1096 15.8104 27.1053 15.8889 27.0941C23.0108 25.9599 28.1198 19.0934 27.1593 11.9307C26.1682 4.52264 19.6389 -0.657865 12.2309 0.0778281C6.70298 0.629598 1.9925 4.58395 0.521116 9.94838C0.379199 10.4485 0.273039 10.962 0.167162 11.4741ZM7.40927 17.9349C7.15663 17.8682 6.90138 17.8009 6.64167 17.7345C6.74042 17.4993 6.83917 17.2707 6.93692 17.0456C7.05157 16.7789 7.16347 16.5171 7.26929 16.2553C7.35103 16.051 7.46343 16.0408 7.66779 16.0918C8.36093 16.2407 8.70577 16.3148 8.92012 16.1806C9.13235 16.0476 9.21665 15.7104 9.38441 15.0394C9.58912 14.216 9.7918 13.3926 9.99426 12.5702C10.2466 11.5452 10.4985 10.5217 10.7536 9.50126C10.8142 9.25119 10.8285 9.0531 10.7886 8.89188C10.7152 8.62501 10.4904 8.45671 10.0851 8.32372C9.98218 8.29155 9.85593 8.2766 9.72967 8.26164C9.5002 8.23447 9.27067 8.20728 9.18085 8.0767C9.15994 8.04938 9.14557 8.01712 9.13918 7.97879C9.08683 7.67221 9.19318 7.33827 9.29804 7.009C9.33647 6.88833 9.3747 6.76829 9.40485 6.65045C9.45985 6.43042 9.60551 6.48839 9.72563 6.5362C9.7617 6.55055 9.79546 6.56399 9.82378 6.56871C10.5697 6.74241 11.3156 6.92634 12.0513 7.1307C12.3783 7.22266 12.5009 7.12048 12.5724 6.80372C12.6337 6.52272 12.7052 6.24173 12.7768 5.96073C12.8483 5.67974 12.9198 5.39875 12.9811 5.11776C13.0424 4.83166 13.1753 4.78056 13.4409 4.84187C14.0809 4.98601 14.3598 5.04882 14.4317 5.27626C14.4932 5.45158 14.4271 5.7263 14.3051 6.21882C14.2796 6.31589 14.2541 6.41551 14.2285 6.51514C14.203 6.61476 14.1774 6.71439 14.1519 6.81146C14.0295 7.29418 13.9931 7.44666 14.1901 7.55486C14.2898 7.60559 14.4462 7.64709 14.6773 7.71312C15.0758 7.82552 15.2189 7.73355 15.2904 7.33505C15.3567 6.97686 15.4489 6.62727 15.5417 6.27511C15.5919 6.08481 15.6423 5.89375 15.6889 5.70018C15.74 5.49582 15.8013 5.44473 16.0363 5.4856C16.6615 5.59927 16.9705 5.65285 17.085 5.83127C17.1306 5.90235 17.1453 5.99324 17.1368 6.11563C17.127 6.29425 17.0673 6.54093 16.9822 6.89321C16.9502 7.01575 16.9056 7.14246 16.8608 7.26953C16.749 7.58746 16.6363 7.90764 16.7166 8.17045C16.7301 8.217 16.7509 8.25781 16.7777 8.29398C16.898 8.44809 17.1304 8.51597 17.3682 8.58547C17.5287 8.63237 17.6917 8.68 17.8244 8.75535C18.3495 9.05184 18.8372 9.37447 19.1769 9.82257C19.4023 10.1173 19.5635 10.4665 19.6287 10.8986C19.8228 12.2168 19.2302 13.2999 18.0245 13.821C18.0054 13.8324 17.9863 13.8453 17.9666 13.8586C17.9338 13.8808 17.8994 13.904 17.861 13.9232C17.8712 13.9368 17.8803 13.9504 17.8886 13.9629C17.8977 13.9765 17.9059 13.9888 17.9136 13.9982C17.918 14.0022 17.9223 14.0052 17.9266 14.0074C18.2532 14.195 18.5175 14.4012 18.7252 14.6257C19.3974 15.3435 19.4891 16.2481 19.1689 17.3257C18.7091 18.8789 17.6975 19.6759 16.1444 19.7474C15.4802 19.7781 14.816 19.7372 14.1621 19.6146C13.9066 19.5635 13.8045 19.6554 13.7432 19.9007C13.69 20.1207 13.6327 20.3393 13.5753 20.5581C13.4782 20.9286 13.3809 21.2996 13.3038 21.6786C13.2425 21.9851 13.1096 22.0056 12.844 21.9443C12.2664 21.8153 11.9804 21.7541 11.8741 21.5819C11.8685 21.5729 11.8635 21.5635 11.8589 21.5539C11.7683 21.3823 11.8372 21.1069 11.9696 20.5775C11.9812 20.5309 11.9928 20.4842 12.0045 20.4372C12.0748 20.1549 12.1461 19.8682 12.225 19.5966C12.2829 19.4166 12.272 19.2972 12.1795 19.2131C12.1251 19.1674 12.0442 19.1329 11.9346 19.1037C11.5313 18.9965 11.3321 18.9403 11.2081 19.0128C11.084 19.0854 11.0355 19.2872 10.9332 19.6963C10.831 20.1255 10.7289 20.5546 10.6165 20.9838C10.6124 21.0022 10.6083 21.0239 10.6039 21.047C10.5866 21.1388 10.5653 21.2515 10.5245 21.2597C10.1917 21.3262 9.88033 21.2268 9.57099 21.1281C9.45292 21.0905 9.33515 21.0529 9.2166 21.0246C9.16944 21.0124 9.13482 20.9951 9.11003 20.974C9.01586 20.9015 9.05809 20.7708 9.09647 20.652C9.10965 20.6112 9.12237 20.5718 9.12896 20.5367C9.15555 20.4214 9.18118 20.3062 9.20679 20.1911C9.29926 19.7754 9.39142 19.361 9.52746 18.9529C9.5932 18.7556 9.6002 18.626 9.53426 18.5355C9.4756 18.4618 9.36566 18.4148 9.19616 18.3782C8.59872 18.2486 8.01143 18.0937 7.40927 17.9349Z" fill="#4181FF"/>
<path d="M14.2963 17.5725C13.4789 17.5725 12.6921 17.3477 11.8951 17.1638C11.6805 17.1127 11.6192 17.0207 11.6703 16.8061C11.9053 15.8865 12.1301 14.9669 12.3651 14.0473C12.3958 13.9042 12.4366 13.7918 12.6308 13.8327C13.6321 14.0779 14.6641 14.2619 15.5327 14.8749C15.8699 15.11 16.156 15.4063 16.2377 15.8354C16.3808 16.5813 15.9823 17.2149 15.2568 17.4601C14.94 17.5623 14.6233 17.5725 14.2963 17.5725Z" fill="#4181FF"/>
<path d="M14.9725 12.6821C14.339 12.6821 13.7361 12.5084 13.1231 12.3756C12.8574 12.3143 12.8472 12.1815 12.8983 11.9669C13.1026 11.1801 13.307 10.3933 13.4909 9.59632C13.5522 9.35109 13.6442 9.32043 13.8792 9.37152C14.4718 9.50436 15.0747 9.64741 15.6265 9.91308C16.495 10.3218 16.8628 10.9042 16.6994 11.599C16.5154 12.3654 15.9943 12.6924 14.9725 12.6821Z" fill="#4181FF"/>
</svg>
