<svg width="175" height="37" viewBox="0 0 175 37" fill="none" xmlns="http://www.w3.org/2000/svg">
<path d="M43.8859 36.9172C43.2453 36.6174 42.5365 36.6583 41.855 36.522C40.4784 36.2358 39.1154 35.9223 37.7933 35.3907C37.3299 35.1999 37.2208 34.9818 37.3435 34.4911C39.1427 27.0219 40.9146 19.5391 42.6864 12.07C43.477 8.75789 44.2675 5.45945 45.058 2.14739C45.1262 1.88842 45.1126 1.64308 45.5078 1.58856C47.7431 1.26145 49.9784 0.89344 52.3091 0.539062C51.355 4.50536 50.4282 8.38988 49.4741 12.3834C49.8421 12.2471 50.142 12.1381 50.4555 12.0291C54.6535 10.6388 60.2826 12.0291 61.5502 18.476C63.0359 25.9861 58.8242 33.9323 51.0416 36.2903C50.1692 36.5492 49.256 36.7128 48.3701 36.9309C46.8844 36.9172 45.3852 36.9172 43.8859 36.9172ZM55.0624 21.8017C55.0079 21.3246 54.9942 20.7249 54.8852 20.1525C54.6262 18.8576 54.1764 17.6718 52.6635 17.372C51.1915 17.0858 49.774 17.3038 48.4791 18.0944C48.2065 18.2579 48.0157 18.476 47.9339 18.8304C47.0071 22.7285 46.0666 26.6267 45.1126 30.5248C45.0171 30.9201 45.0853 31.1109 45.5078 31.1654C47.5932 31.3971 49.5968 31.2063 51.3142 29.8297C53.8357 27.7988 54.9124 25.0865 55.0624 21.8017Z" fill="#4181FF"/>
<path d="M122.263 36.9136C121.909 36.641 121.459 36.6955 121.05 36.5865C117.357 35.6324 115.23 33.1381 114.685 29.4989C113.813 23.7062 115.339 18.5678 119.769 14.5742C123.354 11.3303 127.593 10.5534 132.131 12.1208C135.498 13.2794 137.065 16.0326 137.461 19.3856C138.02 24.0606 136.929 28.3677 133.971 32.0886C131.872 34.7328 129.16 36.382 125.739 36.7909C125.657 36.8046 125.589 36.8727 125.521 36.9C124.444 36.9136 123.354 36.9136 122.263 36.9136ZM121.255 25.8598C121.268 27.3454 121.35 28.4494 121.814 29.4853C122.195 30.344 122.849 30.8619 123.763 31.0119C125.167 31.2436 126.461 30.9846 127.579 30.0169C128.997 28.7766 129.842 27.2091 130.332 25.4236C130.891 23.4064 131.055 21.3619 130.441 19.3174C130.073 18.0907 129.283 17.3683 127.961 17.232C126.461 17.0685 125.194 17.5319 124.131 18.595C122.045 20.7213 121.364 23.3655 121.255 25.8598Z" fill="#4181FF"/>
<path d="M102.356 36.9211C101.947 36.6621 101.456 36.703 101.006 36.5803C97.0129 35.5581 94.5459 33.0502 93.9462 28.9612C93.2238 24.0408 94.3278 19.5566 97.7217 15.8084C100.175 13.096 103.337 11.7194 106.963 11.4468C109.525 11.256 112.033 11.5695 114.418 12.6053C114.786 12.7689 114.895 12.8779 114.705 13.2868C114.037 14.7316 113.396 16.1764 112.783 17.6484C112.606 18.0846 112.415 18.1663 111.979 17.9891C110.111 17.1986 108.149 16.9396 106.186 17.4712C103.051 18.3163 101.552 20.6197 100.993 23.6456C100.707 25.1448 100.666 26.6714 101.102 28.1707C101.647 30.038 102.806 30.9512 104.741 31.0875C106.486 31.2101 108.189 30.9648 109.825 30.3515C110.261 30.1879 110.357 30.2697 110.384 30.7195C110.493 32.1915 110.629 33.6635 110.793 35.1219C110.834 35.5445 110.697 35.7216 110.302 35.8443C109.048 36.2532 107.794 36.6621 106.486 36.7984C106.39 36.812 106.308 36.8257 106.281 36.9347C104.986 36.9211 103.678 36.9211 102.356 36.9211Z" fill="#4181FF"/>
<path d="M167.084 36.2614C166.103 36.2614 165.135 36.2478 164.154 36.275C163.745 36.2887 163.677 36.1796 163.772 35.7707C164.781 31.5864 165.776 27.3883 166.744 23.1903C167.03 21.9364 167.384 20.6688 167.139 19.3603C166.907 18.12 166.185 17.4249 164.945 17.3022C163.922 17.2068 162.9 17.3022 161.891 17.4385C161.51 17.493 161.442 17.7384 161.374 18.0382C160.338 22.4271 159.288 26.8159 158.239 31.2047C157.884 32.704 157.503 34.2033 157.176 35.7026C157.08 36.0978 156.957 36.2614 156.508 36.2614C154.572 36.2341 152.65 36.2478 150.715 36.2614C150.306 36.2614 150.17 36.2205 150.292 35.7435C152.092 28.3697 153.863 20.9823 155.635 13.5949C155.717 13.2542 155.867 13.1179 156.181 13.0088C159.711 11.823 163.323 11.2642 167.044 11.5777C169.919 11.823 172.332 12.8998 173.531 15.7621C174.417 17.8611 174.349 20.0418 173.859 22.1954C172.836 26.7477 171.705 31.2865 170.642 35.8253C170.546 36.2069 170.356 36.275 170.015 36.2614C169.034 36.2478 168.066 36.2614 167.084 36.2614Z" fill="#4181FF"/>
<path d="M88.8019 17.6812C87.7115 17.6812 86.6211 17.6949 85.5307 17.6676C85.1763 17.654 85.0128 17.763 84.931 18.1174C84.2359 21.1705 83.5135 24.2099 82.8047 27.2494C82.7775 27.3312 82.7638 27.4266 82.7502 27.522C82.4231 29.9345 83.3499 31.0249 85.7897 31.093C87.1527 31.1339 88.4611 30.8886 89.7287 30.4797C90.124 30.3434 90.2194 30.4115 90.2467 30.8204C90.3693 32.2652 90.5056 33.71 90.6556 35.1547C90.6828 35.441 90.6419 35.6045 90.3284 35.7136C87.1118 36.8448 83.827 37.2129 80.4877 36.436C77.3255 35.6999 75.6899 33.1784 75.8262 29.6892C75.9353 26.895 76.6849 24.2372 77.3119 21.5385C78.4568 16.6181 79.6426 11.7113 80.7875 6.79094C80.9238 6.23211 81.1146 5.97315 81.7144 5.89137C83.6225 5.64603 85.5307 5.33254 87.4253 5.00542C88.0659 4.89639 88.0795 5.10083 87.9432 5.6324C87.4389 7.60873 86.9891 9.5987 86.4712 11.575C86.3621 12.0112 86.4712 12.0657 86.8664 12.0657C89.02 12.0521 91.1871 12.0793 93.3406 12.0521C93.8858 12.0384 93.9949 12.1884 93.8586 12.7063C93.4633 14.192 93.1089 15.6913 92.7546 17.1905C92.6728 17.5586 92.5229 17.7085 92.114 17.6949C91.0372 17.6676 89.9195 17.6812 88.8019 17.6812Z" fill="#4181FF"/>
<path d="M141.66 36.259C140.734 36.259 139.793 36.2181 138.866 36.2726C138.294 36.2999 138.239 36.1227 138.348 35.6184C139.371 31.3659 140.379 27.1133 141.401 22.8472C142.206 19.467 143.01 16.1004 143.787 12.7202C143.896 12.2295 144.087 12.0251 144.632 12.0387C146.472 12.0796 148.312 12.0659 150.152 12.0387C150.67 12.0251 150.82 12.1341 150.697 12.6793C148.843 20.3529 147.003 28.0129 145.177 35.7002C145.068 36.15 144.891 36.2863 144.455 36.2726C143.528 36.2317 142.587 36.259 141.66 36.259Z" fill="#4181FF"/>
<path d="M65.8569 36.2567C64.9301 36.2567 63.9896 36.2158 63.0628 36.2703C62.4904 36.2976 62.4495 36.1204 62.5721 35.6297C63.5535 31.5544 64.5212 27.479 65.4889 23.4037C66.334 19.8599 67.179 16.3025 68.0105 12.7587C68.1331 12.2272 68.3239 12.0364 68.8964 12.05C70.7364 12.0909 72.5765 12.0773 74.4165 12.0636C74.8936 12.0636 75.0435 12.159 74.9208 12.677C73.0671 20.3642 71.2271 28.0515 69.4007 35.7387C69.3053 36.134 69.169 36.2976 68.7328 36.2839C67.7515 36.2294 66.7974 36.2567 65.8569 36.2567Z" fill="#4181FF"/>
<path d="M77.2851 4.45437C77.2851 7.4802 74.2321 9.77002 71.3425 8.92497C69.5843 8.42067 68.7119 7.15309 68.8346 5.29942C69.0391 2.39625 72.1467 0.310878 74.9135 1.21045C76.5082 1.71476 77.2988 2.79152 77.2851 4.45437Z" fill="#4181FF"/>
<path d="M153.071 4.40581C153.085 7.44527 150.1 9.74872 147.17 8.94456C145.193 8.41299 144.28 6.84556 144.716 4.74655C145.289 1.96605 148.383 0.262318 150.972 1.31182C152.417 1.89791 153.071 2.86563 153.071 4.40581Z" fill="#4181FF"/>
<path fill-rule="evenodd" clip-rule="evenodd" d="M0.22298 15.8447C0.150671 16.1944 0.0784613 16.5437 0 16.8899V20.8425C0.239817 21.2778 0.305989 21.7535 0.372026 22.2283C0.407325 22.482 0.442585 22.7355 0.504306 22.9824C2.30345 30.3835 8.42327 35.8491 16.0015 36.7895C16.0247 36.7921 16.0489 36.7932 16.0735 36.7943C16.1785 36.7992 16.2896 36.8043 16.3559 36.9258H20.0359C20.2832 36.7379 20.5808 36.7222 20.8712 36.7069C20.981 36.7012 21.0898 36.6954 21.1945 36.6805C30.6945 35.1676 37.5095 26.0083 36.2283 16.4537C34.9062 6.57204 26.1967 -0.338316 16.315 0.643037C8.94121 1.37905 2.65783 6.65382 0.695124 13.8095C0.505819 14.4766 0.364211 15.1615 0.22298 15.8447ZM9.88329 24.4628C9.54632 24.3739 9.20585 24.2841 8.85943 24.1955C8.99157 23.8809 9.1237 23.575 9.2545 23.2738C9.40697 22.9191 9.55576 22.5709 9.6965 22.2228C9.80554 21.9502 9.95547 21.9365 10.2281 22.0047C12.0681 22.4 12.0681 22.4 12.5179 20.6008C12.791 19.5025 13.0613 18.4042 13.3314 17.307C13.6679 15.9398 14.004 14.5745 14.3443 13.2134C14.4261 12.8759 14.4446 12.6094 14.389 12.393C14.2891 12.0412 13.9897 11.8186 13.4527 11.6424C13.3154 11.5994 13.147 11.5795 12.9786 11.5596C12.6752 11.5236 12.3717 11.4877 12.2497 11.3175C12.22 11.2801 12.1996 11.2357 12.1908 11.1826C12.1209 10.7736 12.2628 10.3282 12.4027 9.88895C12.4539 9.72798 12.5049 9.56785 12.5451 9.41067C12.6185 9.11716 12.8128 9.19449 12.9731 9.25826C13.0212 9.27741 13.0662 9.29533 13.104 9.30163C14.099 9.53334 15.0939 9.77867 16.0753 10.0513C16.5114 10.1739 16.675 10.0376 16.7704 9.61512C16.8522 9.24029 16.9476 8.86547 17.043 8.49065C17.1384 8.11583 17.2338 7.74101 17.3156 7.36618C17.3974 6.98455 17.5746 6.9164 17.929 6.99818C18.7763 7.18901 19.149 7.27297 19.2484 7.57089C19.3343 7.80446 19.2461 8.17159 19.0819 8.8346C19.0478 8.96409 19.0137 9.09698 18.9796 9.22987C18.9456 9.36276 18.9115 9.49565 18.8774 9.62514C18.7122 10.2767 18.6644 10.4772 18.9378 10.6219C19.0712 10.6874 19.2772 10.7422 19.5782 10.8282C20.1097 10.9781 20.3006 10.8554 20.396 10.3239C20.4844 9.84606 20.6074 9.37975 20.7312 8.91C20.7982 8.65615 20.8654 8.4013 20.9275 8.14309C20.9957 7.87049 21.0775 7.80234 21.3909 7.85686C22.2248 8.00848 22.6371 8.07995 22.7898 8.31795C22.8497 8.41133 22.8697 8.53037 22.8595 8.68993C22.8476 8.92875 22.7674 9.25964 22.6529 9.73417C22.6101 9.89764 22.5506 10.0667 22.4909 10.2361C22.3417 10.6602 22.1914 11.0873 22.2985 11.4379C22.3177 11.5041 22.348 11.5616 22.3873 11.6122C22.5498 11.8113 22.8551 11.9005 23.1676 11.9918C23.3817 12.0544 23.5991 12.1179 23.7762 12.2184C24.4538 12.6011 25.0847 13.0164 25.5355 13.5842C25.8596 13.9894 26.0917 14.4723 26.183 15.0771C26.442 16.8353 25.6515 18.2801 24.0431 18.9752C24.0177 18.9905 23.9922 19.0077 23.966 19.0254C23.9221 19.055 23.8763 19.0859 23.8251 19.1115C23.8387 19.1297 23.8508 19.1479 23.8619 19.1645C23.8745 19.1835 23.8858 19.2005 23.8966 19.2133C23.902 19.2179 23.9072 19.2216 23.9125 19.2242C24.3295 19.4638 24.6704 19.7261 24.9419 20.0107C25.8712 20.9742 26.0024 22.1938 25.5697 23.6503C24.9563 25.722 23.607 26.7852 21.5352 26.8806C20.6493 26.9215 19.7633 26.8669 18.891 26.7034C18.5503 26.6352 18.414 26.7579 18.3322 27.085C18.2614 27.3785 18.1849 27.6701 18.1083 27.962C17.9787 28.4562 17.849 28.951 17.7461 29.4566C17.6643 29.8655 17.4872 29.8928 17.1328 29.811C16.3624 29.639 15.9808 29.5573 15.8391 29.3276C15.8327 29.3173 15.8268 29.3066 15.8214 29.2957C15.6965 29.0673 15.7884 28.6997 15.9662 27.9882C15.9818 27.9261 15.9973 27.8636 16.0129 27.8011C16.1066 27.4244 16.2018 27.0421 16.307 26.6797C16.3854 26.4358 16.3691 26.2753 16.2404 26.1629C16.1678 26.1043 16.0619 26.0598 15.9197 26.0219C15.3818 25.8789 15.116 25.8039 14.9507 25.9007C14.7851 25.9976 14.7204 26.2668 14.584 26.8124C14.4477 27.3849 14.3114 27.9573 14.1615 28.5298C14.156 28.5544 14.1505 28.5834 14.1447 28.6141C14.1216 28.7366 14.0933 28.8869 14.0388 28.8978C13.5949 28.9866 13.1795 28.854 12.7669 28.7224C12.6094 28.6721 12.4523 28.622 12.2942 28.5843C12.2343 28.5688 12.1896 28.5472 12.157 28.5209C12.0248 28.4249 12.0819 28.2481 12.1338 28.0875C12.1514 28.0331 12.1684 27.9806 12.1771 27.9337C12.2126 27.78 12.2468 27.6263 12.281 27.4727C12.4043 26.9182 12.5272 26.3654 12.7087 25.8211C12.7978 25.5539 12.806 25.3797 12.7137 25.2588C12.6344 25.1634 12.489 25.1022 12.2669 25.0542C11.47 24.8813 10.6865 24.6747 9.88329 24.4628Z" fill="#4181FF"/>
<path d="M19.0704 23.9794C17.98 23.9794 16.9305 23.6795 15.8674 23.4342C15.5812 23.366 15.4994 23.2433 15.5676 22.9571C15.881 21.7304 16.1809 20.5037 16.4944 19.277C16.5353 19.0862 16.5898 18.9363 16.8488 18.9908C18.1845 19.3179 19.5611 19.5633 20.7197 20.3811C21.1694 20.6946 21.5511 21.0898 21.6601 21.6623C21.8509 22.6573 21.3194 23.5023 20.3516 23.8294C19.9291 23.9657 19.5066 23.9794 19.0704 23.9794Z" fill="#4181FF"/>
<path d="M19.9721 17.4557C19.127 17.4557 18.3228 17.224 17.5051 17.0468C17.1507 16.9651 17.137 16.7879 17.2052 16.5016C17.4778 15.4521 17.7504 14.4026 17.9957 13.3395C18.0775 13.0124 18.2002 12.9715 18.5137 13.0396C19.3042 13.2168 20.1084 13.4077 20.8444 13.762C22.0029 14.3072 22.4936 15.0841 22.2755 16.011C22.0302 17.0332 21.3351 17.4694 19.9721 17.4557Z" fill="#4181FF"/>
</svg>
