<svg width="135" height="137" viewBox="0 0 135 137" fill="none" xmlns="http://www.w3.org/2000/svg">
<path fill-rule="evenodd" clip-rule="evenodd" d="M56.5722 3.69812C57.5715 1.44929 59.8013 0 62.2618 0C68.8669 0 75.2015 2.62433 79.8721 7.29566C84.5426 11.967 87.1665 18.3027 87.1665 24.9089V43.5907H116.149C118.843 43.5657 121.511 44.1241 123.97 45.2277C126.44 46.3366 128.64 47.9694 130.416 50.013C132.193 52.0566 133.504 54.4621 134.259 57.0629C135.014 59.6637 135.195 62.3975 134.788 65.075L126.196 121.119C126.196 121.121 126.197 121.118 126.196 121.119C125.52 125.572 123.257 129.636 119.826 132.553C116.403 135.462 112.047 137.041 107.556 136.999H18.6785C13.7247 136.999 8.97372 135.031 5.47081 131.527C1.96791 128.024 0 123.272 0 118.317V74.7268C0 69.7721 1.96791 65.0204 5.47081 61.5169C8.97372 58.0134 13.7247 56.0451 18.6785 56.0451H33.3108L56.5722 3.69812ZM43.5832 63.5939L66.0462 13.0436C67.9227 13.6423 69.6483 14.6835 71.0669 16.1023C73.4022 18.438 74.7141 21.6058 74.7141 24.9089V49.8179C74.7141 53.2571 77.5017 56.0451 80.9403 56.0451H116.18L116.251 56.0447C117.153 56.0345 118.047 56.2207 118.871 56.5903C119.694 56.9599 120.428 57.5042 121.02 58.1854C121.612 58.8666 122.049 59.6684 122.301 60.5353C122.552 61.4015 122.612 62.3119 122.478 63.2036C122.478 63.2027 122.477 63.2044 122.478 63.2036L113.885 119.252C113.66 120.737 112.906 122.09 111.761 123.063C110.617 124.036 109.16 124.562 107.659 124.545L43.5832 124.545V63.5939ZM31.1309 124.545V68.4996H18.6785C17.0272 68.4996 15.4436 69.1557 14.276 70.3235C13.1083 71.4913 12.4524 73.0753 12.4524 74.7268V118.317C12.4524 119.969 13.1083 121.553 14.276 122.721C15.4436 123.889 17.0272 124.545 18.6785 124.545H31.1309Z" fill="url(#paint0_linear)"/>
<defs>
<linearGradient id="paint0_linear" x1="-5.34173" y1="-1.58068e-05" x2="141.825" y2="4.33953" gradientUnits="userSpaceOnUse">
<stop stop-color="#227AFF"/>
<stop offset="1" stop-color="#A698FF"/>
</linearGradient>
</defs>
</svg>
