<svg width="58" height="10" viewBox="0 0 58 10" fill="none" xmlns="http://www.w3.org/2000/svg">
<path d="M53.9313 0.826999L50.3179 6.01834C50.261 6.10101 50.185 6.16861 50.0962 6.21531C50.0074 6.26201 49.9086 6.28642 49.8083 6.28642C49.708 6.28642 49.6092 6.26201 49.5204 6.21531C49.4316 6.16861 49.3555 6.10101 49.2987 6.01834L45.5037 0.565606L45.5077 0.560547H41.051L41.0544 0.565606L35.2082 8.96731C35.1425 9.06018 35.1037 9.16936 35.0961 9.28283C35.0885 9.39631 35.1123 9.50969 35.165 9.61051C35.2176 9.71132 35.297 9.79566 35.3945 9.85426C35.492 9.91285 35.6037 9.94343 35.7175 9.94262H38.6535C38.7537 9.94291 38.8524 9.91886 38.9412 9.87255C39.03 9.82623 39.1063 9.75903 39.1634 9.67673L42.7706 4.49382C42.8274 4.41116 42.9035 4.34355 42.9923 4.29685C43.0811 4.25014 43.1799 4.22574 43.2802 4.22574C43.3805 4.22574 43.4793 4.25014 43.5681 4.29685C43.6569 4.34355 43.7329 4.41116 43.7898 4.49382L47.5825 9.94262H52.0363L57.8865 1.53642C57.9521 1.44355 57.9909 1.33437 57.9985 1.2209C58.0062 1.10742 57.9823 0.994037 57.9297 0.893221C57.8771 0.792406 57.7976 0.708062 57.7001 0.649468C57.6027 0.590875 57.4909 0.5603 57.3772 0.561108H54.4411C54.341 0.560818 54.2422 0.584866 54.1534 0.631183C54.0646 0.6775 53.9884 0.744698 53.9313 0.826999Z" fill="#E3E3E3"/>
<path d="M38.2387 0.561272H25.8936C25.7935 0.560982 25.6947 0.585031 25.6059 0.631347C25.5171 0.677664 25.4409 0.744863 25.3838 0.827164L21.767 6.023C21.7102 6.10567 21.6341 6.17327 21.5453 6.21997C21.4565 6.26668 21.3577 6.29108 21.2574 6.29108C21.1571 6.29108 21.0583 6.26668 20.9695 6.21997C20.8807 6.17327 20.8047 6.10567 20.7478 6.023L16.9461 0.561272H12.4962L8.69954 6.01401C8.64271 6.09667 8.56663 6.16428 8.47785 6.21098C8.38908 6.25768 8.29027 6.28209 8.18996 6.28209C8.08964 6.28209 7.99084 6.25768 7.90206 6.21098C7.81328 6.16428 7.7372 6.09667 7.68038 6.01401L4.06865 0.825478C4.01155 0.743176 3.93532 0.675978 3.8465 0.629661C3.75769 0.583344 3.65895 0.559296 3.55879 0.559586H0.622743C0.509013 0.558778 0.397263 0.589353 0.299785 0.647947C0.202307 0.70654 0.122876 0.790884 0.0702311 0.8917C0.0175862 0.992515 -0.00623306 1.1059 0.00139123 1.21937C0.00901552 1.33285 0.0477885 1.44203 0.113446 1.53489L5.96473 9.94335H10.4146L14.2113 4.49061C14.2681 4.40795 14.3442 4.34034 14.433 4.29364C14.5218 4.24694 14.6206 4.22253 14.7209 4.22253C14.8212 4.22253 14.92 4.24694 15.0088 4.29364C15.0975 4.34034 15.1736 4.40795 15.2304 4.49061L19.0271 9.94335H23.4877L25.4614 7.10736C25.4726 7.09359 25.4846 7.08046 25.4973 7.06801L26.6053 5.47717C26.6191 5.44964 26.6349 5.42315 26.6525 5.39791L27.3468 4.40067C27.404 4.31854 27.4803 4.25147 27.5691 4.20517C27.6578 4.15888 27.7565 4.13473 27.8566 4.13478H31.3048C31.4186 4.13387 31.5304 4.16437 31.6279 4.22292C31.7255 4.28147 31.805 4.36581 31.8577 4.46664C31.9104 4.56748 31.9343 4.6809 31.9267 4.79443C31.9191 4.90796 31.8803 5.01718 31.8146 5.11009L31.1193 6.10563C31.062 6.18776 30.9857 6.25483 30.897 6.30113C30.8082 6.34743 30.7095 6.37158 30.6094 6.37152H27.6166L26.7919 7.55707L28.2625 9.67745C28.3197 9.75987 28.396 9.82721 28.4849 9.87371C28.5738 9.92021 28.6726 9.94449 28.7729 9.94447H32.573C32.673 9.94467 32.7717 9.92058 32.8604 9.87427C32.9491 9.82796 33.0252 9.7608 33.0823 9.67858L38.7486 1.53771C38.8146 1.4448 38.8536 1.33545 38.8614 1.22175C38.8692 1.10805 38.8454 0.99441 38.7926 0.893386C38.7399 0.792362 38.6602 0.707882 38.5625 0.649274C38.4647 0.590667 38.3527 0.560211 38.2387 0.561272Z" fill="#E3E3E3"/>
</svg>
