<svg width="102" height="17" viewBox="0 0 102 17" fill="none" xmlns="http://www.w3.org/2000/svg">
<path d="M94.9843 0.459802L88.7541 9.41109C88.6553 9.5526 88.5238 9.66818 88.3708 9.74798C88.2178 9.82779 88.0477 9.86946 87.8751 9.86946C87.7026 9.86946 87.5325 9.82779 87.3795 9.74798C87.2265 9.66818 87.095 9.5526 86.9962 9.41109L80.4533 0.0103535L80.4592 0.000743254H72.7772L72.7831 0.0103535L62.7008 14.4992C62.589 14.6597 62.5232 14.8477 62.5107 15.043C62.4982 15.2382 62.5395 15.4331 62.63 15.6066C62.7206 15.78 62.8569 15.9253 63.0242 16.0267C63.1915 16.1281 63.3834 16.1817 63.579 16.1817H68.642C68.8145 16.1817 68.9845 16.14 69.1375 16.06C69.2904 15.9801 69.4217 15.8643 69.5202 15.7226L75.74 6.78609C75.8387 6.64443 75.9702 6.52871 76.1232 6.44881C76.2762 6.3689 76.4463 6.32717 76.619 6.32717C76.7916 6.32717 76.9617 6.3689 77.1147 6.44881C77.2678 6.52871 77.3992 6.64443 77.4979 6.78609L84.0371 16.1817H91.7162L101.805 1.68618C101.918 1.52567 101.985 1.33721 101.998 1.14141C102.011 0.945607 101.97 0.749994 101.879 0.575951C101.788 0.401908 101.652 0.256133 101.484 0.154558C101.316 0.0529822 101.123 -0.000484329 100.927 3.30595e-06H95.864C95.6911 -0.000205735 95.5207 0.0415198 95.3675 0.121603C95.2143 0.201686 95.0828 0.317737 94.9843 0.459802Z" fill="white"/>
<path d="M63.1307 5.02236e-08H44.639C44.4664 -5.28432e-05 44.2964 0.0416739 44.1434 0.121615C43.9905 0.201557 43.8592 0.317336 43.7608 0.459059L37.5276 9.41921C37.429 9.56088 37.2976 9.6766 37.1446 9.75652C36.9917 9.83643 36.8216 9.87817 36.649 9.87817C36.4764 9.87817 36.3064 9.83643 36.1534 9.75652C36.0004 9.6766 35.8691 9.56088 35.7705 9.41921L29.215 5.02236e-08H21.5426L14.996 9.40591C14.8974 9.54757 14.766 9.66329 14.613 9.74321C14.4601 9.82312 14.29 9.86486 14.1174 9.86486C13.9448 9.86486 13.7748 9.82312 13.6218 9.74321C13.4688 9.66329 13.3375 9.54757 13.2389 9.40591L7.01237 0.459799C6.91372 0.317869 6.78218 0.201922 6.629 0.121855C6.47582 0.0417874 6.30553 -2.1402e-05 6.13269 5.02236e-08H1.07047C0.874838 -1.26877e-05 0.682945 0.0535881 0.515638 0.154978C0.348332 0.256369 0.212011 0.40167 0.121488 0.575097C0.0309644 0.748524 -0.0102984 0.943443 0.00218017 1.13868C0.0146587 1.33391 0.0804016 1.52199 0.192268 1.68248L10.2812 16.1787H17.9529L24.4995 6.77353C24.5981 6.63186 24.7295 6.51614 24.8824 6.43622C25.0354 6.35631 25.2055 6.31458 25.3781 6.31458C25.5507 6.31458 25.7207 6.35631 25.8737 6.43622C26.0266 6.51614 26.158 6.63186 26.2566 6.77353L32.804 16.1787H40.4919L43.8923 11.2887C43.9909 11.1468 44.1223 11.0308 44.2755 10.9507C44.4286 10.8705 44.5988 10.8287 44.7716 10.8287C44.9445 10.8287 45.1147 10.8705 45.2678 10.9507C45.421 11.0308 45.5524 11.1468 45.651 11.2887L48.7224 15.7167C48.821 15.8588 48.9524 15.9749 49.1056 16.0551C49.2588 16.1353 49.4292 16.1772 49.6021 16.1772H56.1539C56.3264 16.1772 56.4964 16.1355 56.6493 16.0555C56.8023 15.9756 56.9336 15.8598 57.0321 15.7182L66.8017 1.68174C66.9131 1.52161 66.9786 1.33409 66.9912 1.13942C67.0038 0.94475 66.9629 0.750346 66.8731 0.577211C66.7832 0.404076 66.6477 0.258793 66.4813 0.157063C66.3148 0.0553326 66.1237 0.00102234 65.9287 5.02236e-08H63.1307ZM45.9518 8.33773L47.1479 6.61829C47.2466 6.4766 47.378 6.36086 47.531 6.28093C47.6841 6.201 47.8542 6.15924 48.0268 6.15923H53.9702C54.1659 6.15908 54.3579 6.21258 54.5253 6.31392C54.6927 6.41526 54.8291 6.56055 54.9198 6.734C55.0104 6.90745 55.0517 7.10242 55.0392 7.29772C55.0268 7.49302 54.961 7.68117 54.8491 7.84171L53.6531 9.56041C53.5544 9.7021 53.423 9.81784 53.2699 9.89777C53.1169 9.9777 52.9468 10.0194 52.7741 10.0195H46.83C46.6344 10.0196 46.4425 9.96618 46.2751 9.86488C46.1078 9.76358 45.9714 9.61833 45.8809 9.44494C45.7903 9.27154 45.7491 9.07663 45.7616 8.88142C45.7741 8.6862 45.8399 8.49815 45.9518 8.33773Z" fill="white"/>
</svg>
