<svg width="141" height="141" viewBox="0 0 141 141" fill="none" xmlns="http://www.w3.org/2000/svg">
<path fill-rule="evenodd" clip-rule="evenodd" d="M0.105119 17.021L0.21024 34.042H17.1261H34.042V17.1261V0.21024L17.021 0.105119L0 0L0.105119 17.021ZM43.9096 4.84197V9.67509H46.3262H48.7427V12.0916V14.5082H51.1593H53.5759V9.67509V4.84197H55.9924H58.409V2.42542V0.00886045H55.9924H53.5759V2.42542V4.84197H51.1593H48.7427V2.42542V0.00886045H46.3262H43.9096V4.84197ZM72.9083 4.84197V9.67509H75.3249H77.7414V12.0916V14.5082H72.9083H68.0752V9.67509V4.84197H65.6586H63.2421V14.7096V24.5772H60.8449H58.4472L58.3276 22.0599L58.2076 19.5427L55.8917 19.4219L53.5759 19.301V21.9391V24.5772H55.9924H58.409V31.8269V39.0765H60.8255H63.2421V41.4931V43.9096H60.8255H58.409V46.3262V48.7427H60.8255H63.2421V46.3262V43.9096H65.6586H68.0752V46.3262V48.7427H70.4917H72.9083V43.9096V39.0765H75.3249H77.7414V41.4931V43.9096H80.158H82.5745V46.3262V48.7427H80.158H77.7414V51.1593V53.5759H75.3249H72.9083V55.9924V58.409H75.3249H77.7414V63.2421V68.0752H80.158H82.5745V70.4917V72.9083H84.9911H87.4076V75.3249V77.7414H80.158H72.9083V75.3249V72.9083H70.4917H68.0752V70.4917V68.0752H70.4917H72.9083V65.6586V63.2421H70.4917H68.0752V65.6586V68.0752H65.6586H63.2421V75.3249V82.5745H60.8255H58.409V77.7414V72.9083H55.9924H53.5759V77.7414V82.5745H51.1593H48.7427V77.7414V72.9083H43.9096H39.0765V75.3249V77.7414H41.4931H43.9096V80.158V82.5745H46.3262H48.7427V84.9911V87.4076H43.9096H39.0765V84.9911V82.5745H36.66H34.2434V80.158V77.7414H31.8269H29.4103V75.3249V72.9083H31.8269H34.2434V70.4917V68.0752H36.66H39.0765V65.6586V63.2421H41.4931H43.9096V65.6586V68.0752H48.7427H53.5759V53.5759V39.0765H51.1593H48.7427V36.6801V34.2837L51.0586 34.1629L53.3745 34.042L53.4953 31.7262L53.6161 29.4103H51.1794H48.7427V26.9937V24.5772H43.9096H39.0765V31.8269V39.0765H41.5132H43.9499L43.8291 41.3924L43.7083 43.7083L41.4049 43.8287L39.1019 43.9491L38.9883 48.6618L38.8751 53.3745L36.5593 53.4953L34.2434 53.6161V56.0126V58.409H19.5427H4.84197V55.9924V53.5759H2.42542H0.00886045V60.8255V68.0752H4.84197H9.67509V65.6586V63.2421H12.0916H14.5082V65.6586V68.0752H21.9592H29.4103V70.4917V72.9083H21.9592H14.5082V75.3249V77.7414H21.9592H29.4103V80.158V82.5745H31.8269H34.2434V84.9911V87.4076H29.4304H24.6175L24.4966 85.0918L24.3758 82.7759H21.9592H19.5427L19.4219 85.0918L19.301 87.4076H16.9046H14.5082V84.9911V82.5745H12.0916H9.67509V80.158V77.7414H4.84197H0.00886045V82.5745V87.4076H2.42542H4.84197V84.9911V82.5745H7.25853H9.67509V87.4076V92.2408H4.84197H0.00886045V94.6573V97.0739H4.84197H9.67509V99.4904V101.907H12.0788H14.4828L14.596 97.1746L14.7096 92.4421H19.5427H24.3758L24.4958 94.7383L24.6162 97.0344L22.0793 97.1548L19.5427 97.2752L19.4223 99.5839L19.3014 101.892L29.0885 102L38.8751 102.108L38.996 104.424L39.1168 106.74H43.9298H48.7427V109.157V111.573H46.3262H43.9096V119.024V126.475H41.4931H39.0765V131.308V136.142H41.4931H43.9096V138.558V140.975H53.5759H63.2421V136.142V131.308H65.6586H68.0752V133.725V136.142H70.4917H72.9083V138.558V140.975H77.7414H82.5745V138.558V136.142H77.7414H72.9083V133.725V131.308H75.3249H77.7414V128.892V126.475H75.3249H72.9083V121.441V116.406H75.3249H77.7414V111.573V106.74H82.5745H87.4076V104.324V101.907H84.9911H82.5745V92.2408V82.5745H84.9911H87.4076V84.9911V87.4076H89.8242H92.2408V89.8242V92.2408H89.8242H87.4076V94.6573V97.0739H89.8242H92.2408V99.4904V101.907H94.6573H97.0739V106.72V111.533L94.758 111.654L92.4421 111.775L92.3322 119.145L92.2226 126.515L89.9156 126.394L87.609 126.274L87.4991 118.904L87.3895 111.534L85.0825 111.654L82.7759 111.775L82.668 121.541L82.56 131.308H84.9838H87.4076V133.725V136.142H89.8242H92.2408V131.308V126.475H94.648H97.0553L97.1653 133.624L97.2752 140.773L102.008 140.887L106.74 141V138.591V136.182L104.424 136.061L102.108 135.94L101.988 133.624L101.867 131.308H104.303H106.74V126.475V121.642H109.144H111.548L111.661 126.375L111.775 131.107L116.728 131.22L121.682 131.333L121.561 133.637L121.441 135.94L116.487 136.053L111.534 136.166L111.654 138.47L111.775 140.773H119.024H126.274L126.387 136.041L126.501 131.308H133.738H140.975V128.892V126.475H138.558H136.142V119.024V111.573H138.571H141L140.887 106.841L140.773 102.108L138.457 101.988L136.142 101.867V97.0537V92.2408H138.558H140.975V84.9911V77.7414H136.142H131.308V80.158V82.5745H133.725H136.142V87.4076V92.2408H133.725H131.308V89.8242V87.4076H128.892H126.475V84.9911V82.5745H124.059H121.642V84.9717V87.3694L119.125 87.489L116.608 87.609L116.488 89.9051L116.367 92.2013L118.904 92.3217L121.441 92.4421L121.562 94.758L121.682 97.0739H116.628H111.573V94.6573V92.2408H104.324H97.0739V89.8242V87.4076H94.6573H92.2408V82.5745V77.7414H94.6573H97.0739V80.158V82.5745H99.4904H101.907V84.9911V87.4076H106.72H111.533L111.654 85.0918L111.775 82.7759L114.09 82.6551L116.406 82.5342V80.1378V77.7414H121.441H126.475V75.3249V72.9083H128.892H131.308V70.4917V68.0752H128.892H126.475V60.8255V53.5759H128.892H131.308V51.1593V48.7427H133.725H136.142V51.1593V53.5759H138.558H140.975V48.7427V43.9096H136.142H131.308V46.3262V48.7427H128.892H126.475V43.9096V39.0765H124.059H121.642V43.9096V48.7427H124.059H126.475V51.1718V53.6008L121.541 53.4877L116.608 53.3745L116.498 46.2255L116.388 39.0765H111.551H106.715L106.828 43.8089L106.941 48.5414L109.257 48.6622L111.573 48.783V51.1794V53.5759H106.74H101.907V41.4931V29.4103H99.4904H97.0739V31.8269V34.2434H94.6573H92.2408V26.7924V19.3413H89.8242H87.4076V14.5082V9.67509H89.8242H92.2408V12.0916V14.5082H97.0739H101.907V7.25853V0.00886045H97.0739H92.2408V2.42542V4.84197H89.8242H87.4076V7.25853V9.67509H82.5745H77.7414V7.25853V4.84197H80.158H82.5745V2.42542V0.00886045H77.7414H72.9083V4.84197ZM106.924 0.512712C106.818 0.789811 106.778 8.44747 106.836 17.5293L106.941 34.042H123.857H140.773L140.878 17.0254L140.983 0.00886045H124.05C110.869 0.00886045 107.075 0.120425 106.924 0.512712ZM29.2089 17.1261V29.2089H17.1261H5.04335L4.93662 17.0194L4.83029 4.83029L17.0194 4.93662L29.2089 5.04335V17.1261ZM97.0739 7.25853V9.67509H94.6573H92.2408V7.25853V4.84197H94.6573H97.0739V7.25853ZM136.047 17.0254L135.94 29.2089H123.857H111.775L111.667 17.5337C111.609 11.1125 111.649 5.62977 111.756 5.35026C111.907 4.95676 114.68 4.84197 124.052 4.84197H136.153L136.047 17.0254ZM9.76651 17.0162L9.87646 24.3758H17.1261H24.3758V17.1261V9.87646L17.0162 9.76651L9.65696 9.65696L9.76651 17.0162ZM116.585 10.1934C116.476 10.4782 116.436 13.7861 116.497 17.5438L116.608 24.3758H123.857H131.107L131.217 17.0254L131.327 9.67509H124.055C118.499 9.67509 116.737 9.79752 116.585 10.1934ZM39.0765 16.9046V19.3413H41.5132H43.9499L43.8291 17.0254L43.7083 14.7096L41.3924 14.5887L39.0765 14.4679V16.9046ZM82.5745 16.9248V19.3413H84.9911H87.4076V21.9794V24.6175L85.0918 24.4966L82.7759 24.3758L82.6559 21.8586L82.5363 19.3413H80.1386H77.7414V26.7924V34.2434H80.158H82.5745V31.8269V29.4103H84.9709H87.3674L87.4882 31.7262L87.609 34.042L89.9055 34.1621L92.2017 34.2825L92.3221 36.5786L92.4421 38.8751L94.758 38.996L97.0739 39.1168V46.3463V53.5759H94.6573H92.2408V55.9924V58.409H94.6573H97.0739V60.8255V63.2421H101.907H106.74V65.6586V68.0752H109.157H111.573V65.6586V63.2421H113.99H116.406V60.8255V58.409H119.024H121.642V65.6586V72.9083H119.024H116.406V75.3249V77.7414H113.99H111.573V75.3249V72.9083H106.74H101.907V70.4917V68.0752H99.4904H97.0739V65.6586V63.2421H92.2408H87.4076V65.6586V68.0752H84.9911H82.5745V63.2421V58.409H80.158H77.7414V55.9924V53.5759H80.158H82.5745V51.1593V48.7427H84.9911H87.4076V41.4931V34.2434H84.9911H82.5745V36.66V39.0765H80.158H77.7414V36.66V34.2434H75.3156H72.8902L72.9997 26.893L73.1097 19.5427L75.4256 19.4219L77.7414 19.301V16.9046V14.5082H80.158H82.5745V16.9248ZM68.0752 29.4103V34.2434H65.6586H63.2421V29.4103V24.5772H65.6586H68.0752V29.4103ZM48.7427 31.8269V34.2434H46.3262H43.9096V31.8269V29.4103H46.3262H48.7427V31.8269ZM4.84197 43.9096V48.7427H9.65495H14.4679L14.5887 51.0586L14.7096 53.3745L17.0254 53.4953L19.3413 53.6161V51.1794V48.7427H24.3758H29.4103V51.1794V53.6161L31.7262 53.4953L34.042 53.3745L34.1629 51.0586L34.2837 48.7427H31.847H29.4103V46.3463V43.9499L31.7262 43.8291L34.042 43.7083L34.1629 41.3924L34.2837 39.0765H31.8671H29.4506L29.3297 41.3924L29.2089 43.7083L24.2751 43.8214L19.3413 43.9346V46.3387V48.7427H16.9248H14.5082V43.9096V39.0765H9.67509H4.84197V43.9096ZM48.7427 55.9924V58.409H46.3262H43.9096V55.9924V53.5759H46.3262H48.7427V55.9924ZM39.0765 60.8255V63.2421H36.66H34.2434V65.6586V68.0752H31.8269H29.4103V65.6586V63.2421H31.8269H34.2434V60.8255V58.409H36.66H39.0765V60.8255ZM131.308 60.8255V63.2421H133.725H136.142V68.0752V72.9083H138.558H140.975V68.0752V63.2421H138.558H136.142V60.8255V58.409H133.725H131.308V60.8255ZM111.573 70.4917V72.9083H113.99H116.406V70.4917V68.0752H113.99H111.573V70.4917ZM106.74 80.158V82.5745H104.324H101.907V80.158V77.7414H104.324H106.74V80.158ZM77.7414 87.4076V92.2408H75.3249H72.9083V89.8242V87.4076H70.4917H68.0752V84.9911V82.5745H72.9083H77.7414V87.4076ZM39.0765 89.8041V92.2005L41.3924 92.3213L43.7083 92.4421L43.8283 94.7387L43.9487 97.0348L46.2448 97.1552L48.5414 97.2752L48.6622 99.5911L48.783 101.907H51.1794H53.5759V99.4904V97.0739H55.9924H58.409V99.4904V101.907H63.2421H68.0752V99.4904V97.0739H65.6586H63.2421V94.6573V92.2408H65.6586H68.0752V94.6573V97.0739H72.9083H77.7414V99.4904V101.907H72.9083H68.0752V104.324V106.74H58.409H48.7427V104.324V101.907H46.3262H43.9096V99.4904V97.0739H41.4931H39.0765V94.6573V92.2408H36.66H34.2434V94.6573V97.0739H31.8269H29.4103V94.6573V92.2408H31.8269H34.2434V89.8242V87.4076H36.66H39.0765V89.8041ZM53.5759 89.8242V92.2408H51.1593H48.7427V89.8242V87.4076H51.1593H53.5759V89.8242ZM131.308 99.4703V106.7L133.624 106.821L135.94 106.941L136.061 109.257L136.182 111.573H133.765H131.349L131.228 109.257L131.107 106.941L128.791 106.821L126.475 106.7V99.4703V92.2408H128.892H131.308V99.4703ZM116.406 109.157V116.406H109.157H101.907V109.425C101.907 105.585 102.028 102.323 102.176 102.176C102.323 102.028 105.585 101.907 109.425 101.907H116.406V109.157ZM0.281528 107.004C0.131701 107.154 0.00886045 114.861 0.00886045 124.13V140.983L17.0254 140.878L34.042 140.773V123.857V106.941L17.2981 106.836C8.08942 106.779 0.431757 106.854 0.281528 107.004ZM107.009 107.009C106.861 107.156 106.74 108.244 106.74 109.425V111.573H109.157H111.573V109.157V106.74H109.425C108.244 106.74 107.156 106.861 107.009 107.009ZM29.2089 123.857V135.94L17.0254 136.047L4.84197 136.153V124.132C4.84197 117.52 4.96562 111.987 5.11625 111.836C5.26729 111.685 10.7496 111.609 17.2997 111.668L29.2089 111.775V123.857ZM63.1507 119.125L63.2602 126.475H60.8348H58.409V131.308V136.142H53.5759H48.7427V133.725V131.308H46.3262H43.9096V128.912V126.516L46.2255 126.395L48.5414 126.274L48.6618 123.971L48.7822 121.668L53.4949 121.554L58.2076 121.441V119.024V116.608L55.8917 116.487L53.5759 116.366V113.957V111.548L58.3083 111.661L63.0407 111.775L63.1507 119.125ZM72.8278 114.09L72.9486 116.406H70.5119H68.0752V114.258C68.0752 113.077 68.2041 111.981 68.362 111.824C68.5194 111.666 69.5614 111.591 70.6778 111.656L72.7069 111.775L72.8278 114.09ZM131.107 116.608V121.441L128.791 121.562L126.475 121.682V126.495V131.308H124.059H121.642V123.857V116.406H124.059H126.475V113.97V111.533L128.791 111.654L131.107 111.775V116.608ZM9.95259 116.666C9.79994 116.818 9.67509 120.179 9.67509 124.135V131.327L17.0254 131.217L24.3758 131.107V123.857V116.608L17.3029 116.498C13.4127 116.438 10.1052 116.513 9.95259 116.666ZM101.907 124.059V126.475H99.4904H97.0739V124.059V121.642H99.4904H101.907V124.059ZM136.142 138.558V140.975H138.558H140.975V138.558V136.142H138.558H136.142V138.558Z" fill="black"/>
</svg>
